{"accessors" : [{"bufferView" : 0, "byteOffset" : 0, "componentType" : 5123, "count" : 2880, "type" : "SCALAR", "max" : [2430], "min" : [0]}, {"bufferView" : 1, "byteOffset" : 0, "componentType" : 5126, "count" : 2431, "type" : "VEC3", "max" : [6.1427998542785645, 29.018600463867188, 4.051799774169922], "min" : [2.709700107574463, 25.585500717163086, 0.6187000274658203], "name" : "POSITION"}, {"bufferView" : 1, "byteOffset" : 12, "componentType" : 5126, "count" : 2431, "type" : "VEC2", "max" : [1, 0], "min" : [0, -1], "name" : "TEXCOORD_0"}, {"bufferView" : 1, "byteOffset" : 20, "componentType" : 5126, "count" : 2431, "type" : "VEC3", "max" : [1.0000044107437134, 1.0000044107437134, 1.0000044107437134], "min" : [-1.0000044107437134, -1.0000044107437134, -1.0000044107437134], "name" : "NORMAL"}, {"bufferView" : 0, "byteOffset" : 5760, "componentType" : 5123, "count" : 12285, "type" : "SCALAR", "max" : [10170], "min" : [0]}, {"bufferView" : 2, "byteOffset" : 0, "componentType" : 5126, "count" : 10171, "type" : "VEC3", "max" : [22.061399459838867, 64.10710144042969, 22.721599578857422], "min" : [-22.080400466918945, 0.9768999814987183, -21.39579963684082], "name" : "POSITION"}, {"bufferView" : 2, "byteOffset" : 12, "componentType" : 5126, "count" : 10171, "type" : "VEC3", "max" : [0.999904990196228, 0.9998915791511536, 0.9992957711219788], "min" : [-0.997572660446167, -1.0000044107437134, -0.9992957711219788], "name" : "NORMAL"}, {"bufferView" : 0, "byteOffset" : 30332, "componentType" : 5123, "count" : 5658, "type" : "SCALAR", "max" : [4650], "min" : [0]}, {"bufferView" : 3, "byteOffset" : 0, "componentType" : 5126, "count" : 4651, "type" : "VEC3", "max" : [19.700199127197266, 27.524599075317383, 20.93199920654297], "min" : [-19.510000228881836, 2.563699960708618, -18.256399154663086], "name" : "POSITION"}, {"bufferView" : 3, "byteOffset" : 12, "componentType" : 5126, "count" : 4651, "type" : "VEC2", "max" : [0.8560000061988831, -0], "min" : [0, -0.5849999785423279], "name" : "TEXCOORD_0"}, {"bufferView" : 3, "byteOffset" : 20, "componentType" : 5126, "count" : 4651, "type" : "VEC3", "max" : [0.9976720213890076, 0.9982190728187561, 0.9983797073364258], "min" : [-0.9975493550300598, -0.9959087371826172, -0.8262541890144348], "name" : "NORMAL"}, {"bufferView" : 0, "byteOffset" : 41648, "componentType" : 5123, "count" : 2880, "type" : "SCALAR", "max" : [2430], "min" : [0]}, {"bufferView" : 4, "byteOffset" : 0, "componentType" : 5126, "count" : 2431, "type" : "VEC3", "max" : [-3.2539000511169434, 29.403799057006836, 5.3495001792907715], "min" : [-7.492199897766113, 24.619600296020508, 1.0749000310897827], "name" : "POSITION"}, {"bufferView" : 4, "byteOffset" : 12, "componentType" : 5126, "count" : 2431, "type" : "VEC2", "max" : [1, 0], "min" : [0, -1], "name" : "TEXCOORD_0"}, {"bufferView" : 4, "byteOffset" : 20, "componentType" : 5126, "count" : 2431, "type" : "VEC3", "max" : [1.0000044107437134, 1.0000044107437134, 1.0000044107437134], "min" : [-1.0000044107437134, -1.0000044107437134, -1.0000044107437134], "name" : "NORMAL"}, {"bufferView" : 0, "byteOffset" : 47408, "componentType" : 5123, "count" : 2880, "type" : "SCALAR", "max" : [2430], "min" : [0]}, {"bufferView" : 5, "byteOffset" : 0, "componentType" : 5126, "count" : 2431, "type" : "VEC3", "max" : [6.545300006866455, 29.24209976196289, -2.5146000385284424], "min" : [2.3071000576019287, 24.45789909362793, -6.7891998291015625], "name" : "POSITION"}, {"bufferView" : 5, "byteOffset" : 12, "componentType" : 5126, "count" : 2431, "type" : "VEC2", "max" : [1, 0], "min" : [0, -1], "name" : "TEXCOORD_0"}, {"bufferView" : 5, "byteOffset" : 20, "componentType" : 5126, "count" : 2431, "type" : "VEC3", "max" : [1.0000044107437134, 1.0000044107437134, 1.0000044107437134], "min" : [-1.0000044107437134, -1.0000044107437134, -1.0000044107437134], "name" : "NORMAL"}, {"bufferView" : 0, "byteOffset" : 53168, "componentType" : 5123, "count" : 2880, "type" : "SCALAR", "max" : [2430], "min" : [0]}, {"bufferView" : 6, "byteOffset" : 0, "componentType" : 5126, "count" : 2431, "type" : "VEC3", "max" : [-1.8609000444412231, 29.018600463867188, 4.968500137329102], "min" : [-5.294000148773193, 25.585500717163086, 1.5354000329971313], "name" : "POSITION"}, {"bufferView" : 6, "byteOffset" : 12, "componentType" : 5126, "count" : 2431, "type" : "VEC2", "max" : [1, 0], "min" : [0, -1], "name" : "TEXCOORD_0"}, {"bufferView" : 6, "byteOffset" : 20, "componentType" : 5126, "count" : 2431, "type" : "VEC3", "max" : [1.0000044107437134, 1.0000044107437134, 1.0000044107437134], "min" : [-1.0000044107437134, -1.0000044107437134, -1.0000044107437134], "name" : "NORMAL"}, {"bufferView" : 0, "byteOffset" : 58928, "componentType" : 5123, "count" : 2880, "type" : "SCALAR", "max" : [2430], "min" : [0]}, {"bufferView" : 7, "byteOffset" : 0, "componentType" : 5126, "count" : 2431, "type" : "VEC3", "max" : [3.438999891281128, 36.000701904296875, 4.051799774169922], "min" : [0.005799999926239252, 32.567501068115234, 0.6187000274658203], "name" : "POSITION"}, {"bufferView" : 7, "byteOffset" : 12, "componentType" : 5126, "count" : 2431, "type" : "VEC2", "max" : [1, 0], "min" : [0, -1], "name" : "TEXCOORD_0"}, {"bufferView" : 7, "byteOffset" : 20, "componentType" : 5126, "count" : 2431, "type" : "VEC3", "max" : [1.0000044107437134, 1.0000044107437134, 1.0000044107437134], "min" : [-1.0000044107437134, -1.0000044107437134, -1.0000044107437134], "name" : "NORMAL"}, {"bufferView" : 0, "byteOffset" : 64688, "componentType" : 5123, "count" : 2880, "type" : "SCALAR", "max" : [2430], "min" : [0]}, {"bufferView" : 8, "byteOffset" : 0, "componentType" : 5126, "count" : 2431, "type" : "VEC3", "max" : [-1.6729999780654907, 37.162899017333984, 5.134099960327148], "min" : [-4.275300025939941, 34.56060028076172, 2.5318000316619873], "name" : "POSITION"}, {"bufferView" : 8, "byteOffset" : 12, "componentType" : 5126, "count" : 2431, "type" : "VEC2", "max" : [1, 0], "min" : [0, -1], "name" : "TEXCOORD_0"}, {"bufferView" : 8, "byteOffset" : 20, "componentType" : 5126, "count" : 2431, "type" : "VEC3", "max" : [1.0000044107437134, 1.0000044107437134, 1.0000044107437134], "min" : [-1.0000044107437134, -1.0000044107437134, -1.0000044107437134], "name" : "NORMAL"}, {"bufferView" : 0, "byteOffset" : 70448, "componentType" : 5123, "count" : 2880, "type" : "SCALAR", "max" : [2430], "min" : [0]}, {"bufferView" : 9, "byteOffset" : 0, "componentType" : 5126, "count" : 2431, "type" : "VEC3", "max" : [-1.125499963760376, 88.88079833984375, 5.361800193786621], "min" : [-3.8870999813079834, 86.11920166015625, 1.9286999702453613], "name" : "POSITION"}, {"bufferView" : 9, "byteOffset" : 12, "componentType" : 5126, "count" : 2431, "type" : "VEC2", "max" : [1, 0], "min" : [0, -1], "name" : "TEXCOORD_0"}, {"bufferView" : 9, "byteOffset" : 20, "componentType" : 5126, "count" : 2431, "type" : "VEC3", "max" : [1.0000044107437134, 1.0000044107437134, 1.0000044107437134], "min" : [-1.0000044107437134, -1.0000044107437134, -1.0000044107437134], "name" : "NORMAL"}, {"bufferView" : 0, "byteOffset" : 76208, "componentType" : 5123, "count" : 2880, "type" : "SCALAR", "max" : [2430], "min" : [0]}, {"bufferView" : 10, "byteOffset" : 0, "componentType" : 5126, "count" : 2431, "type" : "VEC3", "max" : [4.2144999504089355, 73.73519897460938, 1.8325999975204468], "min" : [1.3380000591278076, 70.85870361328125, -1.0439000129699707], "name" : "POSITION"}, {"bufferView" : 10, "byteOffset" : 12, "componentType" : 5126, "count" : 2431, "type" : "VEC2", "max" : [1, 0], "min" : [0, -1], "name" : "TEXCOORD_0"}, {"bufferView" : 10, "byteOffset" : 20, "componentType" : 5126, "count" : 2431, "type" : "VEC3", "max" : [1.0000044107437134, 1.0000044107437134, 1.0000044107437134], "min" : [-1.0000044107437134, -1.0000044107437134, -1.0000044107437134], "name" : "NORMAL"}, {"bufferView" : 0, "byteOffset" : 81968, "componentType" : 5123, "count" : 2880, "type" : "SCALAR", "max" : [2430], "min" : [0]}, {"bufferView" : 11, "byteOffset" : 0, "componentType" : 5126, "count" : 2431, "type" : "VEC3", "max" : [4.630300045013428, 94.06410217285156, 4.686699867248535], "min" : [2.5473999977111816, 91.981201171875, 2.603800058364868], "name" : "POSITION"}, {"bufferView" : 11, "byteOffset" : 12, "componentType" : 5126, "count" : 2431, "type" : "VEC2", "max" : [1, 0], "min" : [0, -1], "name" : "TEXCOORD_0"}, {"bufferView" : 11, "byteOffset" : 20, "componentType" : 5126, "count" : 2431, "type" : "VEC3", "max" : [1.0000044107437134, 1.0000044107437134, 1.0000044107437134], "min" : [-1.0000044107437134, -1.0000044107437134, -1.0000044107437134], "name" : "NORMAL"}], "asset" : {"generator" : "Aspose.3D 23.4.0", "version" : "2.0"}, "buffers" : [{"uri" : "data:application/octet-stream;base64,", "byteLength" : 1393112}], "bufferViews" : [{"buffer" : 0, "byteOffset" : 0, "byteLength" : 87728, "target" : 34963}, {"buffer" : 0, "byteOffset" : 87732, "byteLength" : 92160, "byteStride" : 32, "target" : 34962}, {"buffer" : 0, "byteOffset" : 179896, "byteLength" : 294840, "byteStride" : 24, "target" : 34962}, {"buffer" : 0, "byteOffset" : 474740, "byteLength" : 181056, "byteStride" : 32, "target" : 34962}, {"buffer" : 0, "byteOffset" : 655800, "byteLength" : 92160, "byteStride" : 32, "target" : 34962}, {"buffer" : 0, "byteOffset" : 747964, "byteLength" : 92160, "byteStride" : 32, "target" : 34962}, {"buffer" : 0, "byteOffset" : 840128, "byteLength" : 92160, "byteStride" : 32, "target" : 34962}, {"buffer" : 0, "byteOffset" : 932292, "byteLength" : 92160, "byteStride" : 32, "target" : 34962}, {"buffer" : 0, "byteOffset" : 1024456, "byteLength" : 92160, "byteStride" : 32, "target" : 34962}, {"buffer" : 0, "byteOffset" : 1116620, "byteLength" : 92160, "byteStride" : 32, "target" : 34962}, {"buffer" : 0, "byteOffset" : 1208784, "byteLength" : 92160, "byteStride" : 32, "target" : 34962}, {"buffer" : 0, "byteOffset" : 1300948, "byteLength" : 92160, "byteStride" : 32, "target" : 34962}], "meshes" : [{"primitives" : [{"attributes" : {"POSITION" : 1, "TEXCOORD_0" : 2, "NORMAL" : 3}, "indices" : 0, "mode" : 4}], "name" : ""}, {"primitives" : [{"attributes" : {"POSITION" : 5, "NORMAL" : 6}, "indices" : 4, "mode" : 4}], "name" : ""}, {"primitives" : [{"attributes" : {"POSITION" : 8, "TEXCOORD_0" : 9, "NORMAL" : 10}, "indices" : 7, "mode" : 4}], "name" : ""}, {"primitives" : [{"attributes" : {"POSITION" : 12, "TEXCOORD_0" : 13, "NORMAL" : 14}, "indices" : 11, "mode" : 4}], "name" : ""}, {"primitives" : [{"attributes" : {"POSITION" : 16, "TEXCOORD_0" : 17, "NORMAL" : 18}, "indices" : 15, "mode" : 4}], "name" : ""}, {"primitives" : [{"attributes" : {"POSITION" : 20, "TEXCOORD_0" : 21, "NORMAL" : 22}, "indices" : 19, "mode" : 4}], "name" : ""}, {"primitives" : [{"attributes" : {"POSITION" : 24, "TEXCOORD_0" : 25, "NORMAL" : 26}, "indices" : 23, "mode" : 4}], "name" : ""}, {"primitives" : [{"attributes" : {"POSITION" : 28, "TEXCOORD_0" : 29, "NORMAL" : 30}, "indices" : 27, "mode" : 4}], "name" : ""}, {"primitives" : [{"attributes" : {"POSITION" : 32, "TEXCOORD_0" : 33, "NORMAL" : 34}, "indices" : 31, "mode" : 4}], "name" : ""}, {"primitives" : [{"attributes" : {"POSITION" : 36, "TEXCOORD_0" : 37, "NORMAL" : 38}, "indices" : 35, "mode" : 4}], "name" : ""}, {"primitives" : [{"attributes" : {"POSITION" : 40, "TEXCOORD_0" : 41, "NORMAL" : 42}, "indices" : 39, "mode" : 4}], "name" : ""}], "nodes" : [{"mesh" : 0, "name" : "Sphere003"}, {"mesh" : 1, "name" : "Line001"}, {"mesh" : 2, "name" : "Line002"}, {"mesh" : 3, "name" : "Sphere004"}, {"mesh" : 4, "name" : "Sphere005"}, {"mesh" : 5, "name" : "Sphere006"}, {"mesh" : 6, "name" : "Sphere007"}, {"mesh" : 7, "name" : "Sphere008"}, {"mesh" : 8, "name" : "Sphere009"}, {"mesh" : 9, "name" : "Sphere010"}, {"mesh" : 10, "name" : "Sphere011"}], "scene" : 0, "scenes" : [{"nodes" : [0, 1, 2, 3, 4, 5, 6, 7, 8, 9, 10]}]}