{"accessors" : [{"bufferView" : 0, "byteOffset" : 0, "componentType" : 5123, "count" : 60, "type" : "SCALAR", "max" : [49], "min" : [0]}, {"bufferView" : 1, "byteOffset" : 0, "componentType" : 5126, "count" : 50, "type" : "VEC3", "max" : [29.77359962463379, 35.341800689697266, 9.365799903869629], "min" : [-11.454999923706055, 0.8636999726295471, 5.156400203704834], "name" : "POSITION"}, {"bufferView" : 1, "byteOffset" : 12, "componentType" : 5126, "count" : 50, "type" : "VEC2", "max" : [1, -0], "min" : [0, -1], "name" : "TEXCOORD_0"}, {"bufferView" : 1, "byteOffset" : 20, "componentType" : 5126, "count" : 50, "type" : "VEC3", "max" : [0.7071098685264587, 0.7071098685264587, 1.0000044107437134], "min" : [-0.7071098685264587, -0.7071098685264587, -1.0000044107437134], "name" : "NORMAL"}, {"bufferView" : 0, "byteOffset" : 120, "componentType" : 5123, "count" : 60, "type" : "SCALAR", "max" : [49], "min" : [0]}, {"bufferView" : 2, "byteOffset" : 0, "componentType" : 5126, "count" : 50, "type" : "VEC3", "max" : [21.475200653076172, 35.341800689697266, -5.486199855804443], "min" : [-19.753400802612305, 0.8636999726295471, -9.695599555969238], "name" : "POSITION"}, {"bufferView" : 2, "byteOffset" : 12, "componentType" : 5126, "count" : 50, "type" : "VEC2", "max" : [1, -0], "min" : [0, -1], "name" : "TEXCOORD_0"}, {"bufferView" : 2, "byteOffset" : 20, "componentType" : 5126, "count" : 50, "type" : "VEC3", "max" : [0.7071098685264587, 0.7071098685264587, 1.0000044107437134], "min" : [-0.7071098685264587, -0.7071098685264587, -1.0000044107437134], "name" : "NORMAL"}, {"bufferView" : 0, "byteOffset" : 240, "componentType" : 5123, "count" : 36, "type" : "SCALAR", "max" : [29], "min" : [0]}, {"bufferView" : 3, "byteOffset" : 0, "componentType" : 5126, "count" : 30, "type" : "VEC3", "max" : [31.205400466918945, 1.2998000383377075, 11.89799976348877], "min" : [-21.047700881958008, 0, -11.628899574279785], "name" : "POSITION"}, {"bufferView" : 3, "byteOffset" : 12, "componentType" : 5126, "count" : 30, "type" : "VEC2", "max" : [1, -0], "min" : [0, -1], "name" : "TEXCOORD_0"}, {"bufferView" : 3, "byteOffset" : 20, "componentType" : 5126, "count" : 30, "type" : "VEC3", "max" : [0.5773528218269348, 0.5773528218269348, 0.5773528218269348], "min" : [-0.5773528218269348, -0.5773528218269348, -0.5773528218269348], "name" : "NORMAL"}, {"bufferView" : 0, "byteOffset" : 312, "componentType" : 5123, "count" : 4872, "type" : "SCALAR", "max" : [4062], "min" : [0]}, {"bufferView" : 4, "byteOffset" : 0, "componentType" : 5126, "count" : 4063, "type" : "VEC3", "max" : [14.746500015258789, 34.624298095703125, 6.418300151824951], "min" : [10.397500038146973, 13.084500312805176, -6.603499889373779], "name" : "POSITION"}, {"bufferView" : 4, "byteOffset" : 12, "componentType" : 5126, "count" : 4063, "type" : "VEC2", "max" : [1, 0], "min" : [0, -1], "name" : "TEXCOORD_0"}, {"bufferView" : 4, "byteOffset" : 20, "componentType" : 5126, "count" : 4063, "type" : "VEC3", "max" : [1.0000044107437134, 1.0000044107437134, 1.0000044107437134], "min" : [-1.0000044107437134, -1.0000044107437134, -1.0000044107437134], "name" : "NORMAL"}, {"bufferView" : 0, "byteOffset" : 10056, "componentType" : 5123, "count" : 4872, "type" : "SCALAR", "max" : [4062], "min" : [0]}, {"bufferView" : 5, "byteOffset" : 0, "componentType" : 5126, "count" : 4063, "type" : "VEC3", "max" : [-4.599800109863281, 34.93830108642578, 6.24970006942749], "min" : [-15.781200408935547, 15.507399559020996, -6.769499778747559], "name" : "POSITION"}, {"bufferView" : 5, "byteOffset" : 12, "componentType" : 5126, "count" : 4063, "type" : "VEC2", "max" : [1, 0], "min" : [0, -1], "name" : "TEXCOORD_0"}, {"bufferView" : 5, "byteOffset" : 20, "componentType" : 5126, "count" : 4063, "type" : "VEC3", "max" : [0.9963730573654175, 0.997187077999115, 0.9998238682746887], "min" : [-0.9963730573654175, -0.997187077999115, -0.9998238682746887], "name" : "NORMAL"}, {"bufferView" : 0, "byteOffset" : 19800, "componentType" : 5123, "count" : 4872, "type" : "SCALAR", "max" : [4062], "min" : [0]}, {"bufferView" : 6, "byteOffset" : 0, "componentType" : 5126, "count" : 4063, "type" : "VEC3", "max" : [10.251199722290039, 34.6239013671875, 6.418300151824951], "min" : [5.902299880981445, 13.084099769592285, -6.603499889373779], "name" : "POSITION"}, {"bufferView" : 6, "byteOffset" : 12, "componentType" : 5126, "count" : 4063, "type" : "VEC2", "max" : [1, 0], "min" : [0, -1], "name" : "TEXCOORD_0"}, {"bufferView" : 6, "byteOffset" : 20, "componentType" : 5126, "count" : 4063, "type" : "VEC3", "max" : [1.0000044107437134, 1.0000044107437134, 1.0000044107437134], "min" : [-1.0000044107437134, -1.0000044107437134, -1.0000044107437134], "name" : "NORMAL"}, {"bufferView" : 0, "byteOffset" : 29544, "componentType" : 5123, "count" : 4872, "type" : "SCALAR", "max" : [4062], "min" : [0]}, {"bufferView" : 7, "byteOffset" : 0, "componentType" : 5126, "count" : 4063, "type" : "VEC3", "max" : [5.7652997970581055, 34.6239013671875, 6.418300151824951], "min" : [1.4163999557495117, 13.084099769592285, -6.603499889373779], "name" : "POSITION"}, {"bufferView" : 7, "byteOffset" : 12, "componentType" : 5126, "count" : 4063, "type" : "VEC2", "max" : [1, 0], "min" : [0, -1], "name" : "TEXCOORD_0"}, {"bufferView" : 7, "byteOffset" : 20, "componentType" : 5126, "count" : 4063, "type" : "VEC3", "max" : [1.0000044107437134, 1.0000044107437134, 1.0000044107437134], "min" : [-1.0000044107437134, -1.0000044107437134, -1.0000044107437134], "name" : "NORMAL"}, {"bufferView" : 0, "byteOffset" : 39288, "componentType" : 5123, "count" : 4872, "type" : "SCALAR", "max" : [4062], "min" : [0]}, {"bufferView" : 8, "byteOffset" : 0, "componentType" : 5126, "count" : 4063, "type" : "VEC3", "max" : [1.2303999662399292, 34.6239013671875, 6.418300151824951], "min" : [-3.1185998916625977, 13.084099769592285, -6.603499889373779], "name" : "POSITION"}, {"bufferView" : 8, "byteOffset" : 12, "componentType" : 5126, "count" : 4063, "type" : "VEC2", "max" : [1, 0], "min" : [0, -1], "name" : "TEXCOORD_0"}, {"bufferView" : 8, "byteOffset" : 20, "componentType" : 5126, "count" : 4063, "type" : "VEC3", "max" : [1.0000044107437134, 1.0000044107437134, 1.0000044107437134], "min" : [-1.0000044107437134, -1.0000044107437134, -1.0000044107437134], "name" : "NORMAL"}], "asset" : {"generator" : "Aspose.3D 23.4.0", "version" : "2.0"}, "buffers" : [{"uri" : "data:application/octet-stream;base64,", "byteLength" : 833580}], "bufferViews" : [{"buffer" : 0, "byteOffset" : 0, "byteLength" : 49032, "target" : 34963}, {"buffer" : 0, "byteOffset" : 49036, "byteLength" : 1920, "byteStride" : 32, "target" : 34962}, {"buffer" : 0, "byteOffset" : 50960, "byteLength" : 1920, "byteStride" : 32, "target" : 34962}, {"buffer" : 0, "byteOffset" : 52884, "byteLength" : 1152, "byteStride" : 32, "target" : 34962}, {"buffer" : 0, "byteOffset" : 54040, "byteLength" : 155904, "byteStride" : 32, "target" : 34962}, {"buffer" : 0, "byteOffset" : 209948, "byteLength" : 155904, "byteStride" : 32, "target" : 34962}, {"buffer" : 0, "byteOffset" : 365856, "byteLength" : 155904, "byteStride" : 32, "target" : 34962}, {"buffer" : 0, "byteOffset" : 521764, "byteLength" : 155904, "byteStride" : 32, "target" : 34962}, {"buffer" : 0, "byteOffset" : 677672, "byteLength" : 155904, "byteStride" : 32, "target" : 34962}], "meshes" : [{"primitives" : [{"attributes" : {"POSITION" : 1, "TEXCOORD_0" : 2, "NORMAL" : 3}, "indices" : 0, "mode" : 4}], "name" : ""}, {"primitives" : [{"attributes" : {"POSITION" : 5, "TEXCOORD_0" : 6, "NORMAL" : 7}, "indices" : 4, "mode" : 4}], "name" : ""}, {"primitives" : [{"attributes" : {"POSITION" : 9, "TEXCOORD_0" : 10, "NORMAL" : 11}, "indices" : 8, "mode" : 4}], "name" : ""}, {"primitives" : [{"attributes" : {"POSITION" : 13, "TEXCOORD_0" : 14, "NORMAL" : 15}, "indices" : 12, "mode" : 4}], "name" : ""}, {"primitives" : [{"attributes" : {"POSITION" : 17, "TEXCOORD_0" : 18, "NORMAL" : 19}, "indices" : 16, "mode" : 4}], "name" : ""}, {"primitives" : [{"attributes" : {"POSITION" : 21, "TEXCOORD_0" : 22, "NORMAL" : 23}, "indices" : 20, "mode" : 4}], "name" : ""}, {"primitives" : [{"attributes" : {"POSITION" : 25, "TEXCOORD_0" : 26, "NORMAL" : 27}, "indices" : 24, "mode" : 4}], "name" : ""}, {"primitives" : [{"attributes" : {"POSITION" : 29, "TEXCOORD_0" : 30, "NORMAL" : 31}, "indices" : 28, "mode" : 4}], "name" : ""}], "nodes" : [{"mesh" : 0, "name" : "L_Ext001"}, {"mesh" : 1, "name" : "L_Ext002"}, {"mesh" : 2, "name" : "Box001"}, {"mesh" : 3, "name" : "Sphere001"}, {"mesh" : 4, "name" : "Sphere002"}, {"mesh" : 5, "name" : "Sphere003"}, {"mesh" : 6, "name" : "Sphere004"}, {"mesh" : 7, "name" : "Sphere005"}], "scene" : 0, "scenes" : [{"nodes" : [0, 1, 2, 3, 4, 5, 6, 7]}]}