{"accessors" : [{"bufferView" : 0, "byteOffset" : 0, "componentType" : 5123, "count" : 24024, "type" : "SCALAR", "max" : [19540], "min" : [0]}, {"bufferView" : 1, "byteOffset" : 0, "componentType" : 5126, "count" : 19541, "type" : "VEC3", "max" : [16.54290008544922, 9.479700088500977, 17.33300018310547], "min" : [-18.12310028076172, 0.010200000368058681, -17.33300018310547], "name" : "POSITION"}, {"bufferView" : 1, "byteOffset" : 12, "componentType" : 5126, "count" : 19541, "type" : "VEC2", "max" : [1, -0], "min" : [0, -1], "name" : "TEXCOORD_0"}, {"bufferView" : 1, "byteOffset" : 20, "componentType" : 5126, "count" : 19541, "type" : "VEC3", "max" : [0.999090850353241, 1.0000044107437134, 0.9995662569999695], "min" : [-0.9995662569999695, -1.0000044107437134, -0.9995662569999695], "name" : "NORMAL"}, {"bufferView" : 0, "byteOffset" : 48048, "componentType" : 5123, "count" : 10020, "type" : "SCALAR", "max" : [8136], "min" : [0]}, {"bufferView" : 2, "byteOffset" : 0, "componentType" : 5126, "count" : 8137, "type" : "VEC3", "max" : [4.5177001953125, 39.947898864746094, 19.650400161743164], "min" : [-59.09510040283203, 5.3403000831604, -7.944799900054932], "name" : "POSITION"}, {"bufferView" : 2, "byteOffset" : 12, "componentType" : 5126, "count" : 8137, "type" : "VEC2", "max" : [1, -0], "min" : [0, -1], "name" : "TEXCOORD_0"}, {"bufferView" : 2, "byteOffset" : 20, "componentType" : 5126, "count" : 8137, "type" : "VEC3", "max" : [0.9977024793624878, 0.9999013543128967, 0.9961644411087036], "min" : [-0.9977024793624878, -0.9999013543128967, -0.9961644411087036], "name" : "NORMAL"}], "asset" : {"generator" : "Aspose.3D 23.4.0", "version" : "2.0"}, "buffers" : [{"uri" : "data:application/octet-stream;base64,", "byteLength" : 1157508}], "bufferViews" : [{"buffer" : 0, "byteOffset" : 0, "byteLength" : 68088, "target" : 34963}, {"buffer" : 0, "byteOffset" : 68092, "byteLength" : 768768, "byteStride" : 32, "target" : 34962}, {"buffer" : 0, "byteOffset" : 836864, "byteLength" : 320640, "byteStride" : 32, "target" : 34962}], "meshes" : [{"primitives" : [{"attributes" : {"POSITION" : 1, "TEXCOORD_0" : 2, "NORMAL" : 3}, "indices" : 0, "mode" : 4}], "name" : ""}, {"primitives" : [{"attributes" : {"POSITION" : 5, "TEXCOORD_0" : 6, "NORMAL" : 7}, "indices" : 4, "mode" : 4}], "name" : ""}], "nodes" : [{"mesh" : 0, "name" : "Line001"}, {"mesh" : 1, "name" : "ChamferCyl001"}], "scene" : 0, "scenes" : [{"nodes" : [0, 1]}]}